<svg xmlns="http://www.w3.org/2000/svg" viewBox="0 0 311.05 100"><defs><style>.cls-1{fill:#fff}.cls-2{fill:#f96302}</style></defs><g id="Layer_2" data-name="Layer 2"><g id="Black"><path class="cls-1" d="M0 0H95.86V95.85H0z"/><path class="cls-2" d="M1.84 1.85H94.01V94.02H1.84z"/><path class="cls-1" d="M86.7 89.5a2.63 2.63 0 1 1 2.63 2.6 2.59 2.59 0 0 1-2.63-2.6m2.63 2.17a2.16 2.16 0 1 0-2.11-2.17 2.1 2.1 0 0 0 2.11 2.17m-.55-.67h-.45v-3h1.14c.71 0 1 .26 1 .85a.77.77 0 0 1-.77.82l.9 1.33h-.5l-.8-1.3h-.52zm.55-1.68c.38 0 .72 0 .72-.49s-.33-.44-.65-.44h-.62v.93zM22.29 74.81l-2.39 2.38-1.58-1.57 2.39-2.39-6.18-6.18c-1-1-1.14-1.2-2.39-.54a1.06 1.06 0 0 1-1.33-.15c-.79-.78 0-1.73.16-1.84l7.68-7.68c.11-.11 1.07-1 1.85-.17a1.07 1.07 0 0 1 .14 1.33c-.65 1.26-.46 1.39.55 2.4l14.26 14.25c1 1 1.14 1.21 2.39.55a1.07 1.07 0 0 1 1.33.14c.78.79-.05 1.74-.16 1.85l-7.68 7.68c-.12.11-1.07.95-1.85.16a1.06 1.06 0 0 1-.14-1.33c.65-1.25.46-1.38-.54-2.39zM1.84 73.65L8.4 67.1c.1-.11 1-.95 1.84-.17a1.09 1.09 0 0 1 .14 1.34c-.66 1.25-.47 1.39.54 2.39l14.26 14.26c1 1 1.14 1.2 2.39.55a1.07 1.07 0 0 1 1.34.13c.78.79-.06 1.74-.17 1.85L22.18 94h-3.13v-.05c.64-1.24.46-1.38-.55-2.39L4.27 77.31c-1-1-1.14-1.2-2.39-.54zM29.6 48.23a2.57 2.57 0 0 0 .58 3.34l14.09 14.1a2.59 2.59 0 0 0 3.35.57l1.57 1.58c-6.27 5.24-13.61 3.27-19-2.14s-7.38-12.76-2.13-19zM48.84 65a2.58 2.58 0 0 0-.58-3.34l-14.1-14.1a2.57 2.57 0 0 0-3.34-.56l-1.57-1.58c6.27-5.24 13.61-3.27 19 2.14s7.38 12.75 2.14 19zm30-29.33a1.06 1.06 0 0 0-1.33-.13c-1.25.65-1.39.46-2.4-.55L60.86 20.73c-1-1-1.2-1.14-.55-2.39a1.07 1.07 0 0 0-.14-1.34c-.79-.79-1.74 0-1.84.16l-7.18 7.17L57 35.19l-.06.05-11.24-5.45-6.9 6.9c-.32.32-1.14 1.14-.29 2 .65.66 1.44 0 1.79-.32s.93-.22 1.57-.06a7.47 7.47 0 0 1 1.66.69l22.52 11.15.78-.79L55.82 29l12.64 12.64c1 1 1.2 1.15.55 2.39a1.07 1.07 0 0 0 .13 1.34c.79.78 1.74-.06 1.85-.17l7.69-7.68c.11-.11.95-1.06.16-1.85M57.57 50l-4.68-4.68-6-3h-.05L56 51.6c3 3.84.17 4.52 1.35 5.68.84.85 1.9-.32 2.2-.62l3.09-3.09c.3-.3 1.46-1.36.62-2.2C62.08 50.2 61.4 53 57.57 50m3.77-35.84L68.5 7l20.35 20.34-7.16 7.17c-.11.11-1.06 1-1.85.16a1.07 1.07 0 0 1-.14-1.33c.65-1.25.46-1.39-.55-2.4L64.9 16.69c-1-1-1.15-1.2-2.4-.55a1.06 1.06 0 0 1-1.33-.14c-.78-.79.06-1.74.17-1.85M77.91 1.84l3.39 3.4c.14.13.63.68-.19 1.49-.46.46-.87.33-1.41.06a7.37 7.37 0 0 0-8.4.56l-1.58-1.58 3.93-3.93zM94 22.17l-3.94 3.95-1.56-1.58a7.88 7.88 0 0 0 .67-8.54c-.22-.6-.49-1.2 0-1.68a1.09 1.09 0 0 1 1.71.14L94 17.57zm-15.2-7.31c.84-1.44.3-3-.5-4.3-.32-.59-.59-1.2 0-1.76.84-.84 1.69.27 1.9.49l5.88 5.87c.22.22 1.33 1.07.49 1.91-.57.57-1.16.29-1.77 0-1.28-.78-2.85-1.32-4.29-.49zm-36 63.66c2.57-2.63 6.54-3 10.67.77 3.76 3.42 3.31 8.13.77 10.67l-.88-.88c.8-1.06 0-2-.6-2.56L46.24 80c-.58-.58-1.5-1.4-2.56-.59zM48.4 94l.16-.33c.2-.38-.24-.77-.47-1l-8-8c-.23-.23-.61-.67-1-.48s-.75.45-1.13.07-.07-.83.24-1.14l3.92-3.91 11.43 11.44L50.19 94zm.1-21.18l4-4L64 80.22l-4 4c-.06.06-.59.53-1 .09a.6.6 0 0 1-.07-.75c.36-.7.26-.78-.31-1.35l-8-8c-.57-.57-.65-.67-1.35-.31a.6.6 0 0 1-.75-.07c-.44-.45 0-1 .09-1m4.73-4.73l3.41-3.41 3.1 3.1c.08.08.36.39-.1.85-.26.26-.49.18-.8 0a4.17 4.17 0 0 0-4.72.31zm10.45 10.54a4.45 4.45 0 0 0 .38-4.82c-.12-.33-.28-.67 0-.94a.61.61 0 0 1 1 .07L68.19 76l-3.52 3.52zm-5.45-5.44a2.31 2.31 0 0 0-.28-2.42c-.18-.33-.34-.68 0-1 .47-.48.94.15 1.07.27l3.3 3.31c.13.12.75.59.28 1.07-.32.32-.66.17-1 0a2.29 2.29 0 0 0-2.41-.27zm14.59-3.7c-.7.37-.78.26-1.35-.31l-9.72-9.73-4 4c-.07.06-.54.6-.1 1a.61.61 0 0 0 .75.08c.71-.37.78-.26 1.35.3l8 8c.57.57.76.56.39 1.26a.58.58 0 0 0 .12.72.63.63 0 0 0 .92 0l4.33-4.34c.06-.06.54-.59.09-1a.6.6 0 0 0-.78.02zm7.92-21.03c.36-.42.06-.87-.22-1.23a4.9 4.9 0 0 1-1.24-3.54l-.88-.88L76.3 45l2.43 2.43A6.76 6.76 0 0 0 72 48.82l.89.88a1.45 1.45 0 0 1 1.88.33L82.73 58a1.46 1.46 0 0 1 .33 1.88l.88.89c3-3.54 1.85-7.66-1.19-10.71a11.87 11.87 0 0 0-1.9-1.59zm-.36 11.73l-7.93-7.92a1.45 1.45 0 0 1-.32-1.88l-.89-.9a6.92 6.92 0 0 0-.76 8.11 4.45 4.45 0 0 0-4.45-1.3 8.24 8.24 0 0 0-3.6 2.46l.89.89c.93-.69 1.7-.2 2.39.49l2.31 2.31c.75.75 1.33 1.42.59 2.5l.89.88a8.05 8.05 0 0 0 2.46-3.6 4.23 4.23 0 0 0-.07-2.67c.19.22.39.44.6.65 3 3 7.17 4.14 10.71 1.19l-.89-.89a1.45 1.45 0 0 1-1.93-.32zm12.18-12.09l-9.73-9.73-3.75 3.75 9.73 9.73c.56.56.68.64.3 1.34a.62.62 0 0 0 .08.75c.45.45 1 0 1-.09l3.7-3.67v-1.78c-.69.37-.77.26-1.33-.3zm-4.62-8.3c.38.3.85.62 1.28.19a.65.65 0 0 0 .06-1l-3.56-3.56-2.2 2.2.88.89a4.92 4.92 0 0 1 3.54 1.28zm-75.16-3.07l3.52-3.52 9.15 9.15c.52.53.6.63 1.26.28a.57.57 0 0 1 .71.07c.41.42 0 .93-.09 1l-4.07 4.07c-.06.06-.56.5-1 .09a.57.57 0 0 1-.07-.71c.35-.66.24-.73-.28-1.26zm9.59-2.89a.62.62 0 0 1-.06.9c-.4.4-.85.1-1.21-.18a4.6 4.6 0 0 0-3.32-1.16l-.83-.84 2.07-2.07zm-12.31 5.61l2.07-2.07.83.83a4.65 4.65 0 0 0 1.17 3.33c.28.36.58.8.17 1.2a.6.6 0 0 1-.89.06zM33 34.89c.53.53.61.63 1.27.29a.56.56 0 0 1 .7.07c.42.42 0 .92-.09 1l-4.06 4.06c-.06.06-.57.51-1 .09a.56.56 0 0 1-.07-.7c.34-.66.24-.74-.29-1.27L22 30.88c-.54-.54-.61-.64-1.27-.29a.57.57 0 0 1-.71-.07c-.41-.42 0-.92.09-1l4.07-4.07c.06-.06.56-.5 1-.09a.57.57 0 0 1 .07.71c-.35.66-.25.73.29 1.26zm-1.52-5.35l-1.24 1.26-.83-.8 1.26-1.26-3.26-3.27c-.53-.53-.61-.63-1.27-.29a.56.56 0 0 1-.7-.07c-.42-.42 0-.92.08-1L29.6 20c0-.06.56-.51 1-.09a.57.57 0 0 1 .08.7c-.35.67-.25.74.28 1.27l7.54 7.53c.53.53.6.63 1.26.29a.57.57 0 0 1 .71.07c.41.42 0 .92-.09 1l-4.07 4.07c-.05.06-.56.5-1 .09a.57.57 0 0 1-.07-.71c.35-.66.25-.73-.28-1.26zm.23-11.62l3.8-3.79 10.75 10.75-3.79 3.8c-.06.06-.57.5-1 .08a.57.57 0 0 1-.08-.7c.35-.66.25-.74-.28-1.27l-7.54-7.53c-.53-.53-.6-.63-1.26-.29a.57.57 0 0 1-.71-.07c-.42-.42 0-.92.09-1m4.44-4.44l3.21-3.21 2.92 2.92c.07.07.33.36-.1.79-.25.25-.46.18-.75 0a3.91 3.91 0 0 0-4.44.3zm9.93 9.92a4.17 4.17 0 0 0 .35-4.53c-.11-.31-.26-.63 0-.89a.58.58 0 0 1 .91.07l2.88 2.88-3.31 3.3zM41 18.28a2.15 2.15 0 0 0-.31-2.28c-.17-.32-.31-.63 0-.94.45-.44.89.15 1 .26l3.1 3.11c.12.12.71.56.26 1-.3.3-.62.15-.93 0a2.2 2.2 0 0 0-2.27-.26z"/><path d="M105.13 44.26h4.79v8.37h8.83v-8.37h4.8v21.81h-4.8v-9.41h-8.83v9.41h-4.79zm28.92 5.59c5 0 8.19 3.3 8.19 8.34s-3.21 8.3-8.19 8.3-8.15-3.3-8.15-8.3 3.21-8.34 8.15-8.34zm0 13.38c3 0 3.85-2.54 3.85-5s-.88-5.07-3.85-5.07-3.81 2.53-3.81 5.07.88 5 3.81 5zm28.13 2.84h-4.46l-2.81-10.6h-.06l-2.68 10.6h-4.49l-5-15.79h4.58L150.15 61h.06l2.63-10.72h4.21L159.74 61h.06l2.9-10.69h4.46zM187 64.05h-.06a5.23 5.23 0 0 1-4.79 2.44c-4.77 0-7.09-4.09-7.09-8.46s2.35-8.18 7-8.18a5.43 5.43 0 0 1 4.67 2.35h.06v-7.94h4.34v21.81H187zm-3.78-10.93c-2.84 0-3.82 2.44-3.82 5s1.13 5.07 3.82 5.07c2.87 0 3.72-2.51 3.72-5.1s-.94-4.97-3.77-4.97zm17.88-3.27c5 0 8.18 3.3 8.18 8.34s-3.2 8.3-8.18 8.3-8.16-3.3-8.16-8.3 3.21-8.34 8.16-8.34zm0 13.38c3 0 3.85-2.54 3.85-5s-.89-5.07-3.85-5.07-3.82 2.53-3.82 5.07.88 5 3.82 5zm13.65-4.01c.12 2.75 1.47 4 3.88 4a3.57 3.57 0 0 0 3.42-2h3.82c-1.22 3.73-3.82 5.31-7.39 5.31-5 0-8.07-3.42-8.07-8.3s3.27-8.34 8.07-8.34c5.37 0 8 4.52 7.66 9.37zm7.05-2.74c-.39-2.2-1.34-3.36-3.45-3.36a3.41 3.41 0 0 0-3.6 3.36zm6.02-6.2H232v2.93a5.57 5.57 0 0 1 5-3.36 3.24 3.24 0 0 1 1 .15v4a7.91 7.91 0 0 0-1.55-.15c-3.18 0-4.28 2.29-4.28 5.07v7.12h-4.34zm14.94 10.65c0 1.9 1.62 2.66 3.33 2.66 1.25 0 2.84-.49 2.84-2 0-1.32-1.8-1.77-4.92-2.45-2.5-.55-5-1.43-5-4.21 0-4 3.48-5.07 6.87-5.07s6.63 1.16 7 5h-4.13c-.12-1.68-1.4-2.14-3-2.14-1 0-2.41.18-2.41 1.47 0 1.55 2.44 1.77 4.92 2.35s5 1.49 5 4.43c0 4.15-3.61 5.49-7.21 5.49s-7.24-1.37-7.42-5.56zM119.91 93c0 2.59-.92 7-8.18 7-3.12 0-6.75-1.47-7-5.07h4.31c.4 1.62 1.71 2.17 3.24 2.17 2.41 0 3.51-1.65 3.48-3.91v-2.08h-.06a5.35 5.35 0 0 1-4.7 2.45c-4.73 0-6.75-3.61-6.75-8 0-4.09 2.35-7.81 6.78-7.81a4.92 4.92 0 0 1 4.71 2.53h.06v-2.06h4.12zm-4.12-7.09c0-2.57-.89-4.86-3.7-4.86-2.44 0-3.51 2.14-3.51 4.49s.85 4.74 3.51 4.74c2.48.01 3.7-2.1 3.7-4.36zm9.65 1.26c.12 2.75 1.47 4 3.88 4a3.58 3.58 0 0 0 3.42-2h3.82a7.11 7.11 0 0 1-7.39 5.31c-5 0-8.07-3.42-8.07-8.31 0-4.73 3.27-8.33 8.07-8.33 5.37 0 8 4.52 7.66 9.37zm7.06-2.75c-.4-2.2-1.35-3.36-3.46-3.36a3.42 3.42 0 0 0-3.6 3.36zm11.5-6.2h3.18v2.9H144v7.82c0 1.47.37 1.84 1.83 1.84a6.18 6.18 0 0 0 1.35-.13V94a15.74 15.74 0 0 1-2.54.16c-2.66 0-5-.61-5-3.76v-9.28h-2.62v-2.9h2.62v-4.73H144zm12.08 0h4.09v2.14h.06a5.69 5.69 0 0 1 4.82-2.56 4.68 4.68 0 0 1 4.62 2.62 5.72 5.72 0 0 1 4.76-2.62c3.36 0 5.77 1.55 5.77 5.65V94h-4.33v-9c0-2.1-.19-3.84-2.66-3.84s-2.9 2-2.9 4V94H166v-8.84c0-1.84.12-3.94-2.63-3.94-.85 0-2.93.55-2.93 3.63V94h-4.33zm34.33-.42c5 0 8.18 3.29 8.18 8.33s-3.2 8.31-8.18 8.31-8.16-3.3-8.16-8.31 3.21-8.33 8.16-8.33zm0 13.37c3 0 3.85-2.53 3.85-5s-.89-5.07-3.85-5.07-3.82 2.54-3.82 5.07.88 5 3.82 5zm10.08-12.95h4.12v2.94h.06a5.57 5.57 0 0 1 5-3.36 3.31 3.31 0 0 1 .95.15v4a8.1 8.1 0 0 0-1.56-.15c-3.18 0-4.28 2.29-4.28 5.07V94h-4.33zm14.63 8.95c.12 2.75 1.46 4 3.88 4a3.58 3.58 0 0 0 3.42-2h3.81c-1.22 3.72-3.81 5.31-7.39 5.31-5 0-8.06-3.42-8.06-8.31 0-4.73 3.27-8.33 8.06-8.33 5.38 0 8 4.52 7.67 9.37zm7-2.75c-.39-2.2-1.34-3.36-3.45-3.36a3.41 3.41 0 0 0-3.6 3.36zM247.07 92H247a5.23 5.23 0 0 1-4.79 2.44c-4.77 0-7.09-4.09-7.09-8.46s2.36-8.18 7-8.18a5.43 5.43 0 0 1 4.67 2.35h.06v-7.94h4.34V94h-4.12zm-3.79-10.94c-2.84 0-3.82 2.45-3.82 5s1.13 5.07 3.82 5.07c2.87 0 3.72-2.5 3.72-5.1s-.91-4.97-3.72-4.97zm17.93-3.26c5 0 8.18 3.29 8.18 8.33s-3.2 8.31-8.18 8.31-8.16-3.3-8.16-8.31 3.21-8.33 8.16-8.33zm0 13.37c3 0 3.85-2.53 3.85-5s-.89-5.07-3.85-5.07-3.82 2.54-3.82 5.07.89 5 3.82 5zm10.08-12.95h4.12v2.2h.09a5.63 5.63 0 0 1 4.83-2.62c4.61 0 5.77 2.59 5.77 6.5V94h-4.34v-8.9c0-2.6-.76-3.88-2.78-3.88-2.35 0-3.36 1.31-3.36 4.52V94h-4.33zm20.8 8.95c.12 2.75 1.46 4 3.88 4a3.58 3.58 0 0 0 3.42-2h3.82a7.12 7.12 0 0 1-7.4 5.31c-5 0-8.06-3.42-8.06-8.31 0-4.73 3.27-8.33 8.06-8.33 5.38 0 8 4.52 7.67 9.37zm7.05-2.75c-.39-2.2-1.34-3.36-3.45-3.36a3.41 3.41 0 0 0-3.6 3.36zm7.97 7.12h-.87V94h-.76v-2.46h-.87V91h2.5zm3.94 2.46h-.71v-2.16l-.81 2.16H309l-.79-2.17V94h-.72v-3h1l.77 2 .77-2h1z"/></g></g></svg>