<svg width="184" height="42" viewBox="0 0 184 42" fill="none" xmlns="http://www.w3.org/2000/svg">
<path d="M93.0508 39.682L93.7799 39.0549C94.334 39.8861 94.8882 40.3236 95.8214 40.3236C96.8276 40.3236 97.5713 39.5945 97.5713 38.18V32.2012H98.5921V38.1654C98.5921 39.2153 98.2859 40.0028 97.7755 40.5132C97.2797 40.9944 96.6089 41.2569 95.8069 41.2569C94.4653 41.2569 93.6049 40.6007 93.0508 39.682Z" fill="#222222"/>
<path d="M102.092 37.3925V32.2012H103.098V37.3342C103.098 39.2591 104.119 40.3382 105.825 40.3382C107.473 40.3382 108.508 39.3466 108.508 37.3925V32.2012H109.514V37.305C109.514 39.9007 108.027 41.2569 105.796 41.2569C103.594 41.2715 102.092 39.9153 102.092 37.3925Z" fill="#222222"/>
<path d="M112.592 39.8262L113.219 39.0825C114.152 39.9283 115.042 40.3512 116.281 40.3512C117.477 40.3512 118.264 39.7096 118.264 38.8346V38.8054C118.264 37.9742 117.812 37.5076 115.946 37.1139C113.89 36.6618 112.956 36.0056 112.956 34.5328V34.5036C112.956 33.1037 114.196 32.0684 115.887 32.0684C117.185 32.0684 118.119 32.4329 119.023 33.162L118.439 33.9349C117.608 33.2641 116.777 32.9725 115.858 32.9725C114.692 32.9725 113.963 33.6141 113.963 34.4161V34.4453C113.963 35.2911 114.415 35.7577 116.383 36.1806C118.366 36.6181 119.285 37.3472 119.285 38.7034V38.7325C119.285 40.2637 118.016 41.2553 116.237 41.2553C114.823 41.2553 113.671 40.7887 112.592 39.8262Z" fill="#222222"/>
<path d="M124.782 33.1345H121.793V32.2012H128.807V33.1345H125.818V41.1256H124.797V33.1345H124.782Z" fill="#222222"/>
<path d="M136.93 32.2012H140.765C141.859 32.2012 142.734 32.5366 143.302 33.0907C143.74 33.5282 143.988 34.1552 143.988 34.8552V34.8843C143.988 36.3572 142.967 37.2321 141.567 37.48L144.308 41.1256H143.069L140.488 37.655H140.459H137.936V41.1256H136.93V32.2012ZM140.677 36.7655C142.019 36.7655 142.967 36.0801 142.967 34.9281V34.8989C142.967 33.8052 142.121 33.1345 140.692 33.1345H137.936V36.7509H140.677V36.7655Z" fill="#222222"/>
<path d="M147.502 32.2012H148.508V41.1256H147.502V32.2012Z" fill="#222222"/>
<path d="M152.008 36.6919V36.6627C152.008 34.2129 153.801 32.0547 156.485 32.0547C157.987 32.0547 158.92 32.4922 159.809 33.2359L159.153 33.9942C158.468 33.3963 157.695 32.9734 156.441 32.9734C154.472 32.9734 153.058 34.6504 153.058 36.6336V36.6627C153.058 38.7918 154.429 40.3667 156.587 40.3667C157.607 40.3667 158.555 39.973 159.168 39.4772V37.2606H156.455V36.3565H160.145V39.9146C159.314 40.6583 158.074 41.2854 156.558 41.2854C153.743 41.2854 152.008 39.2438 152.008 36.6919Z" fill="#222222"/>
<path d="M163.674 32.2012H164.68V36.1676H169.828V32.2012H170.834V41.1256H169.828V37.1155H164.68V41.1256H163.674V32.2012Z" fill="#222222"/>
<path d="M176.987 33.1345H173.998V32.2012H181.012V33.1345H178.023V41.1256H177.002V33.1345H176.987Z" fill="#222222"/>
<path d="M182.105 39.7988H183.272V41.1404H182.105V39.7988Z" fill="#222222"/>
<path d="M54.6114 17.3834L45.8911 1.98438H40.1602V23.3039H44.5932V9.56724L52.7886 23.3039H56.755L64.6295 9.33393V23.3039H68.9896V1.98438H63.3171L54.6114 17.3834Z" fill="#F42434"/>
<path d="M138.461 17.5147L123.85 1.98438H117.594V23.3039H122.391V8.06525L136.726 23.3039H143.273V1.98438H138.461V17.5147Z" fill="#F42434"/>
<path d="M13.1971 1.67969L0 23.3054H5.62882L7.53912 19.6744H23.5361L25.6797 23.3054H31.5127L18.126 1.69427H13.1971V1.67969ZM10.2515 15.1393L15.4282 6.59397L20.7654 15.1393H10.2515Z" fill="#F42434"/>
<path d="M170.353 1.67969H165.424L152.227 23.2909H157.855L159.766 19.6598H175.763L177.906 23.2909H183.739L170.353 1.67969ZM162.478 15.1393L167.655 6.59397L172.992 15.1393H162.478Z" fill="#F42434"/>
<path d="M90.8338 1.67969L77.6367 23.2909H83.2655L85.1758 19.6598H101.158L103.302 23.2909H109.135L95.7481 1.67969H90.8338ZM87.8736 15.1393L93.0504 6.59397L98.3875 15.1393H87.8736Z" fill="#F42434"/>
<path d="M180.399 0.716797C178.678 0.716797 177.293 2.11671 177.293 3.83744V3.85203C177.293 5.55817 178.678 6.95808 180.384 6.95808C182.105 6.95808 183.491 5.55817 183.491 3.83744V3.82286C183.491 2.11671 182.105 0.716797 180.399 0.716797ZM180.384 6.25813C179.043 6.25813 177.993 5.19361 177.993 3.85203V3.83744C177.993 2.48127 179.043 1.40217 180.399 1.40217C181.741 1.40217 182.791 2.46669 182.791 3.80827V3.82286C182.791 5.19361 181.741 6.25813 180.384 6.25813Z" fill="#F42434"/>
<path d="M181.828 3.2834V3.26882C181.828 2.97717 181.74 2.75844 181.565 2.58345C181.361 2.37929 181.026 2.24805 180.544 2.24805H179.145V5.25203H179.976V4.33334H180.326H180.34L180.953 5.25203H181.915L181.201 4.20209C181.58 4.05627 181.828 3.75004 181.828 3.2834ZM180.996 3.34173C180.996 3.56047 180.836 3.69171 180.544 3.69171H179.99V2.96259H180.53C180.807 2.96259 180.996 3.07925 180.996 3.32715V3.34173Z" fill="#F42434"/>
</svg>
