<?xml version="1.0" encoding="UTF-8"?>
<svg width="185px" height="22px" viewBox="0 0 185 22" version="1.1" xmlns="http://www.w3.org/2000/svg" xmlns:xlink="http://www.w3.org/1999/xlink">
    <title>C6756B80-5111-4441-A3B3-32E71A5EABE7</title>
    <defs>
        <polygon id="path-1" points="0 0 181.160454 0 181.160454 21.1425856 0 21.1425856"></polygon>
    </defs>
    <g id="D.FRG---Navigation" stroke="none" stroke-width="1" fill="none" fill-rule="evenodd">
        <g id="D.FRG---Header-Default" transform="translate(-104.000000, -62.000000)">
            <g id="Frigidaire_FullColor_RGB" transform="translate(104.000000, 62.000000)">
                <polyline id="Fill-1" fill="#2D2E2C" points="132.895027 11.3764259 132.895027 21.9644487 136.454119 21.9644487 136.454119 0.821863118 132.895027 0.821863118 132.895027 11.3764259"></polyline>
                <path d="M61.7812966,13.0222433 L66.9563366,13.0222433 L66.9563366,16.9802915 C65.7163302,17.9471483 63.9788523,18.5801014 62.0697633,18.5801014 C57.9324023,18.5801014 55.1832876,15.3790875 55.1832876,11.0306717 L55.1832876,10.9679341 C55.1832876,6.92135615 58.017874,3.50982256 61.7499125,3.50982256 C64.3260808,3.50982256 65.8585603,4.38466413 67.4204208,5.77395437 L69.6780737,2.9626109 C67.5980415,1.1230038 65.4225215,0.0961977186 61.8961491,0.0961977186 C55.7896019,0.0961977186 51.4492458,5.11032953 51.4492458,11.0306717 L51.4492458,11.090621 C51.4492458,17.2514575 55.6179909,21.9644487 61.9515721,21.9644487 C65.540045,21.9644487 68.4040123,20.4531686 70.4025793,18.6700253 L70.4025793,9.78776933 L61.7812966,9.78776933 L61.7812966,13.0222433" id="Fill-2" fill="#2D2E2C"></path>
                <g id="Group-6" transform="translate(0.000000, 0.821863)">
                    <mask id="mask-2" fill="white">
                        <use xlink:href="#path-1"></use>
                    </mask>
                    <g id="Clip-4"></g>
                    <polyline id="Fill-3" fill="#2D2E2C" mask="url(#mask-2)" points="169.699243 17.8195817 169.699243 12.1404309 181.156448 12.1404309 181.156448 8.81742712 169.699243 8.81742712 169.699243 3.32091255 181.156448 3.32091255 181.156448 0 166.140151 0 166.140151 21.1425856 181.160454 21.1425856 181.160454 17.8195817 169.699243 17.8195817"></polyline>
                    <polygon id="Fill-5" fill="#2D2E2C" mask="url(#mask-2)" points="3.51835944 21.1425856 3.51835944 12.5342839 15.0309871 12.5342839 15.0309871 9.15481622 3.51835944 9.15481622 3.51835944 3.38225602 15.0369968 3.38225602 15.0369968 0 -0.0400648256 0 -0.0400648256 21.1425856"></polygon>
                </g>
                <path d="M23.5100397,11.3011407 L23.5100397,4.20411914 L28.6910894,4.20411914 C31.3240162,4.20411914 32.8858766,5.44144487 32.8858766,7.70836502 L32.8858766,7.76831432 C32.8858766,9.91254753 31.2659222,11.3011407 28.7204702,11.3011407 L23.5100397,11.3011407 Z M31.6712446,13.9605196 C34.5058311,13.1149556 36.5037304,11.0306717 36.5037304,7.55709759 L36.5037304,7.49575412 C36.5037304,5.65126743 35.8954128,4.08282636 34.8250142,2.93333333 C33.5235751,1.60747782 31.525008,0.821863118 28.9815594,0.821863118 L19.9529509,0.821863118 L19.9529509,21.9644487 L23.5100397,21.9644487 L23.5100397,14.5948669 L27.9672515,14.5948669 L32.9439706,21.9644487 L37.1407611,21.9644487 L31.6712446,13.9605196 L31.6712446,13.9605196 Z" id="Fill-7" fill="#2D2E2C"></path>
                <polyline id="Fill-8" fill="#2D2E2C" points="42.3658821 11.0237009 42.3658821 21.9644487 45.9249741 21.9644487 45.9249741 0.821863118 42.3658821 0.821863118 42.3658821 11.0237009"></polyline>
                <polyline id="Fill-9" fill="#2D2E2C" points="76.7755576 11.3764259 76.7755576 21.9644487 80.3359851 21.9644487 80.3359851 0.821863118 76.7755576 0.821863118 76.7755576 11.3764259"></polyline>
                <path d="M102.128579,11.4524081 C102.128579,15.58891 99.3494158,18.5773131 95.1005411,18.5773131 L91.1067457,18.5773131 L91.1067457,4.20411914 L95.1005411,4.20411914 C99.3494158,4.20411914 102.128579,7.25525982 102.128579,11.3910646 L102.128579,11.4524081 Z M95.1005411,0.821863118 L87.5443149,0.821863118 L87.5443149,21.9644487 L95.1005411,21.9644487 C101.463503,21.9644487 105.865292,17.3420786 105.865292,11.3910646 L105.865292,11.3311153 C105.865292,5.38149556 101.463503,0.821863118 95.1005411,0.821863118 L95.1005411,0.821863118 Z" id="Fill-10" fill="#2D2E2C"></path>
                <path d="M147.235563,11.3011407 L147.235563,4.20411914 L152.415945,4.20411914 C155.047536,4.20411914 156.6114,5.44144487 156.6114,7.70836502 L156.6114,7.76831432 C156.6114,9.91254753 154.988775,11.3011407 152.444658,11.3011407 L147.235563,11.3011407 Z M155.3961,13.9605196 C158.230019,13.1149556 160.226583,11.0306717 160.226583,7.55709759 L160.226583,7.49575412 C160.226583,5.65126743 159.617597,4.08282636 158.549202,2.93333333 C157.246428,1.60747782 155.248528,0.821863118 152.70508,0.821863118 L143.677807,0.821863118 L143.677807,21.9644487 L147.235563,21.9644487 L147.235563,14.5948669 L151.690772,14.5948669 L156.667491,21.9644487 L160.864281,21.9644487 L155.3961,13.9605196 L155.3961,13.9605196 Z" id="Fill-11" fill="#2D2E2C"></path>
                <polyline id="Fill-12" fill="#2D2E2C" points="107.297609 21.9644487 128.740972 21.9644487 118.020292 0 107.297609 21.9644487"></polyline>
                <polyline id="Fill-13" fill="#DC3E54" points="112.696345 18.5717364 117.998257 7.44416984 123.341569 18.5717364 112.696345 18.5717364"></polyline>
                <path d="M183.533627,20.3130545 C183.734619,20.3130545 183.854814,20.2112801 183.854814,20.0488593 L183.854814,20.0411914 C183.854814,19.8690114 183.734619,19.7769962 183.533627,19.7769962 L183.130976,19.7769962 L183.130976,20.3130545 L183.533627,20.3130545 Z M182.821809,19.4856147 L183.545647,19.4856147 C183.760661,19.4856147 183.927598,19.5518378 184.038444,19.668948 C184.124584,19.7532953 184.172661,19.8745881 184.172661,20.0230672 L184.172661,20.0314322 C184.172661,20.3046895 184.017744,20.4747782 183.794716,20.5416984 L184.231423,21.1816223 L183.864162,21.1816223 L183.468856,20.5946768 L183.130976,20.5946768 L183.130976,21.1816223 L182.821809,21.1816223 L182.821809,19.4856147 Z M184.83707,20.3799747 L184.83707,20.3716096 C184.83707,19.5713561 184.240772,18.921673 183.451494,18.921673 C182.658879,18.921673 182.058574,19.5790241 182.058574,20.3799747 L182.058574,20.3897338 C182.058574,21.1913815 182.654872,21.8389734 183.442814,21.8389734 C184.236765,21.8389734 184.83707,21.1816223 184.83707,20.3799747 Z M181.895644,20.3897338 L181.895644,20.3799747 C181.895644,19.4988593 182.582088,18.7599493 183.451494,18.7599493 C184.322904,18.7599493 185,19.4891001 185,20.3716096 L185,20.3799747 C185,21.2617871 184.313556,22 183.442814,22 C182.572739,22 181.895644,21.2715463 181.895644,20.3897338 L181.895644,20.3897338 Z" id="Fill-14" fill="#2D2E2C"></path>
            </g>
        </g>
    </g>
</svg>