<svg xmlns="http://www.w3.org/2000/svg" width="140" height="15" viewBox="0 0 140 15" fill="none"><g clip-path="url(#clip0_1844_3803)"><path d="M34.672 11.8631C34.2217 11.8631 33.7897 11.6825 33.4711 11.361C33.1526 11.0395 32.9734 10.6033 32.9731 10.1485V7.63825H35.7376V5.28174H32.9731V2.04883H27.4887V5.2851H25.832V7.64161H27.4887V11.0159V11.1281C27.4887 12.8113 29.3354 14.1725 31.6143 14.1725C33.582 14.1725 34.9887 13.6451 35.7376 13.2748V11.4794C35.4368 11.7275 35.0604 11.8631 34.672 11.8631Z" fill="#C41230"></path><path d="M24.0654 5.28516H18.6465V13.6676H24.0654V5.28516Z" fill="#C41230"></path><path d="M21.3546 4.05864C22.8479 4.05864 24.0579 3.16092 24.0579 2.04438C24.0579 0.927847 22.8479 0.03125 21.3546 0.03125C19.8612 0.03125 18.6523 0.928969 18.6523 2.04438C18.6523 3.1598 19.8623 4.05864 21.3546 4.05864Z" fill="#C41230"></path><path d="M71.2213 10.18H78.8491C78.8491 10.18 79.0558 8.16012 78.0713 6.882C77.0125 5.50849 74.8702 4.71289 72.5047 4.71289C70.1391 4.71289 65.7402 5.29977 65.7402 9.50109C65.7402 13.7024 69.8413 14.1816 72.4925 14.1816C77.5458 14.1816 78.6991 12.9932 78.6991 12.9932V11.2797C77.0966 11.8139 75.42 12.0871 73.7325 12.0888C70.9436 12.0888 71.2213 10.4908 71.2213 10.18ZM71.2213 8.21287V7.93009C71.2213 7.57295 71.3618 7.23044 71.6119 6.97791C71.8619 6.72538 72.2011 6.58351 72.5547 6.58351C72.9083 6.58351 73.2474 6.72538 73.4975 6.97791C73.7475 7.23044 73.888 7.57295 73.888 7.93009C73.888 7.93009 73.888 8.2196 73.888 8.22184V8.24878H71.2213V8.21287Z" fill="#C41230"></path><path d="M59.3971 5.02396C58.1482 5.02396 56.9893 5.60748 56.2727 6.12816V0.804688H50.8516V13.6679H56.2627V9.59559C56.2627 9.23846 56.4031 8.89595 56.6532 8.64342C56.9032 8.39089 57.2424 8.24902 57.596 8.24902C57.9496 8.24902 58.2888 8.39089 58.5388 8.64342C58.7889 8.89595 58.9293 9.23846 58.9293 9.59559C58.9293 9.59559 58.9293 9.59559 58.9293 9.60344V13.6679H63.8882V8.79774C63.8882 7.91125 62.8604 5.02396 59.3971 5.02396Z" fill="#C41230"></path><path d="M89.444 5.02344C88.1962 5.02344 87.0362 5.60696 86.3196 6.12763V5.2849H80.8984V13.6673H86.3107V9.59507C86.3107 9.23794 86.4511 8.89543 86.7012 8.6429C86.9512 8.39037 87.2904 8.2485 87.644 8.2485C87.9976 8.2485 88.3368 8.39037 88.5868 8.6429C88.8369 8.89543 88.9773 9.23794 88.9773 9.59507C88.9773 9.59507 88.9773 9.59507 88.9773 9.60292V13.6673H93.9429V8.79722C93.9407 7.91072 92.9084 5.02344 89.444 5.02344Z" fill="#C41230"></path><path d="M119.186 5.28516H113.768V13.6676H119.186V5.28516Z" fill="#C41230"></path><path d="M116.478 4.05864C117.972 4.05864 119.182 3.16092 119.182 2.04438C119.182 0.927847 117.972 0.03125 116.478 0.03125C114.983 0.03125 113.775 0.928969 113.775 2.04438C113.775 3.1598 114.985 4.05864 116.478 4.05864Z" fill="#C41230"></path><path d="M105.751 13.6678H112.238L106.41 0H99.9232L100.61 1.60916L95.4688 13.6678H98.7121L99.7388 11.2563H104.724L105.751 13.6678ZM101.022 8.24891L102.232 5.41212L103.444 8.24891H101.022Z" fill="#C41230"></path><path d="M14.3022 7.08792C14.1179 6.63617 13.8281 6.23614 13.4576 5.92195C13.0871 5.60775 12.6469 5.38871 12.1744 5.28351L15.8311 -0.00292969H10.9689L7.68333 4.74936C7.55936 4.91523 7.39905 5.04986 7.21496 5.14272C7.03087 5.23559 6.828 5.28415 6.62222 5.28463C6.48111 5.28463 6.37444 5.29361 6.32889 5.28463V-0.0006832H0V13.6671H6.33333V8.89682C6.6005 8.76649 6.8933 8.6986 7.19 8.6982C7.5848 8.70022 7.97031 8.81936 8.29862 9.0408C8.62694 9.26225 8.88358 9.57626 9.03667 9.94379L10.63 13.6671H17.1111L14.3022 7.08792Z" fill="#C41230"></path><path d="M45.7691 11.1995C43.9758 11.1995 42.5213 10.6384 42.5213 9.44333C42.5213 8.24824 43.9758 7.68829 45.7691 7.68829C46.8369 7.68829 47.7813 7.88915 48.3736 8.3021V5.88051C47.1791 5.095 45.5269 4.70898 43.7002 4.70898C40.0602 4.70898 37.1113 6.23286 37.1113 9.44557C37.1113 12.6583 40.0624 14.1799 43.7024 14.1799C45.5291 14.1799 47.1813 13.7961 48.3758 13.0084V10.5846C47.778 10.9975 46.8369 11.1995 45.7691 11.1995Z" fill="#C41230"></path><path d="M129.409 0.787109V5.50686C128.556 5.04678 127.61 4.69218 126.378 4.69218C123.246 4.69218 120.965 6.13863 120.965 9.18863C120.965 12.2386 123.246 13.6862 126.378 13.6862C127.61 13.6862 128.556 13.3305 129.409 12.8704V13.6492H134.827V0.787109H129.409ZM127.931 10.7978C126.977 10.7978 126.376 10.0774 126.376 9.18863C126.376 8.29989 126.975 7.57947 127.931 7.57947C128.487 7.5851 129.018 7.8117 129.409 8.21011V10.1683C129.018 10.5669 128.487 10.7932 127.931 10.7978Z" fill="#C41230"></path><path d="M138.984 1.4312C138.984 1.00367 138.678 0.764648 138.179 0.764648H137.434V2.96293H137.917V2.12469H138.077L138.654 2.98875L139.154 2.90346L138.569 2.03941C138.695 1.99813 138.804 1.91619 138.878 1.80624C138.953 1.6963 138.99 1.56449 138.984 1.4312ZM138.137 1.78355H137.915V1.15852H138.137C138.366 1.15852 138.494 1.27074 138.494 1.46599C138.501 1.68032 138.366 1.78355 138.137 1.78355Z" fill="#C41230"></path><path d="M138.17 0.0361328C137.105 0.0361328 136.338 0.80929 136.338 1.93368C136.338 3.05807 137.088 3.82338 138.17 3.82338C139.233 3.82338 140 3.05807 140 1.93368C140 0.80929 139.249 0.0361328 138.17 0.0361328ZM138.17 3.50133C137.351 3.50133 136.699 2.94025 136.699 1.93032C136.699 0.920386 137.351 0.359312 138.17 0.359312C138.989 0.359312 139.647 0.920386 139.647 1.93032C139.647 2.94025 139 3.49796 138.17 3.49796V3.50133Z" fill="#C41230"></path></g><defs><clipPath id="clip0_1844_3803"><rect width="140" height="14.1772" fill="white"></rect></clipPath></defs></svg>
